<svg width="28" height="28" viewBox="0 0 28 28" fill="none" xmlns="http://www.w3.org/2000/svg">
<path fill-rule="evenodd" clip-rule="evenodd" d="M19.266 25.0829H9.52688C5.94946 25.0829 3.20499 23.7908 3.98455 18.5901L4.89225 11.5421C5.3728 8.94713 7.02803 7.95399 8.48035 7.95399H20.3553C21.8289 7.95399 23.3881 9.02188 23.9434 11.5421L24.8511 18.5901C25.5132 23.2034 22.8434 25.0829 19.266 25.0829Z" stroke="#101010" stroke-width="1.5" stroke-linecap="round" stroke-linejoin="round"/>
<path d="M19.4262 7.6977C19.4262 4.91395 17.1695 2.65727 14.3858 2.65727V2.65727C13.0453 2.65159 11.7577 3.18013 10.8078 4.12601C9.85794 5.07189 9.32396 6.35719 9.32397 7.6977H9.32397" stroke="#101010" stroke-width="1.5" stroke-linecap="round" stroke-linejoin="round"/>
<path d="M17.8457 12.9517H17.7923" stroke="#101010" stroke-width="1.5" stroke-linecap="round" stroke-linejoin="round"/>
<path d="M11.0433 12.9517H10.9899" stroke="#101010" stroke-width="1.5" stroke-linecap="round" stroke-linejoin="round"/>
</svg>
